<svg xmlns="http://www.w3.org/2000/svg" viewBox="0 0 59.76 77.76"><defs><style>.cls-1{fill:#202020;}</style></defs><title>Asset 4</title><g id="Layer_2" data-name="Layer 2"><g id="Layer_1-2" data-name="Layer 1"><path class="cls-1" d="M12.22,0l6.5,52.32H13.83l-1.19-9.64H4.26l-1.4,9.64H0L5.8,0ZM7.89,7.82,4.4,40h7.82L8.38,7.82Z"/><path class="cls-1" d="M22.77.07H36.88V2.79H28.22V22.91h8v2.66h-8q.13,7.18.11,13.72t0,13H22.84Z"/><path class="cls-1" d="M59.51.07V52.25H56.86L43.59,14.81V52.25H40.86V.07h2.73l13.2,37.09V.07Z"/><path class="cls-1" d="M3.16,73.46c0,.27,0,.54,0,.8s0,.71,0,1a2,2,0,0,0,.21.78,1.12,1.12,0,0,0,.49.52,1.73,1.73,0,0,0,.85.18h0a1.68,1.68,0,0,0,.91-.21,1.31,1.31,0,0,0,.48-.68,4.77,4.77,0,0,0,.16-1.28c0-.53,0-1.18,0-2V56.53h2.1V73.78c0,.47,0,.9,0,1.28a2.6,2.6,0,0,1-.24,1,5.51,5.51,0,0,1-.48.76,2.09,2.09,0,0,1-.63.55,3.33,3.33,0,0,1-.94.32,7.87,7.87,0,0,1-1.42.11,4.3,4.3,0,0,1-2.18-.43A3.25,3.25,0,0,1,1.35,76a2.6,2.6,0,0,1-.24-1c0-.38,0-.81,0-1.28v-2h2.1v.84C3.17,72.91,3.17,73.19,3.16,73.46Z"/><path class="cls-1" d="M18.05,58.71a7.21,7.21,0,0,1,.14.87c0,.37.06.79.08,1.25s0,.92,0,1.4,0,.9,0,1.27V73.78c0,.47,0,.9,0,1.28a2.6,2.6,0,0,1-.24,1,3,3,0,0,1-1.33,1.31,4.7,4.7,0,0,1-2.09.43,4.63,4.63,0,0,1-2.06-.43A2.91,2.91,0,0,1,11.24,76a2.6,2.6,0,0,1-.24-1c0-.38,0-.81,0-1.28V63.5c0-.37,0-.8,0-1.27s0-.95,0-1.4,0-.88.08-1.25a5.64,5.64,0,0,1,.14-.87,3.42,3.42,0,0,1,1.22-1.79,3.51,3.51,0,0,1,2.2-.67,3.4,3.4,0,0,1,3.39,2.46Zm-5,1q0,3.59,0,7.19t0,7.35c0,.37,0,.71.05,1a1.87,1.87,0,0,0,.21.78,1.12,1.12,0,0,0,.49.52,1.7,1.7,0,0,0,.85.18h0a1.68,1.68,0,0,0,.91-.21,1.25,1.25,0,0,0,.47-.68,4.35,4.35,0,0,0,.17-1.28c0-.53,0-1.18,0-2V59.81A5.47,5.47,0,0,0,16,58c-.16-.47-.6-.7-1.31-.7h0a1.64,1.64,0,0,0-.84.18,1.22,1.22,0,0,0-.48.5,2.23,2.23,0,0,0-.21.79C13.08,59,13.06,59.37,13.06,59.72Z"/><path class="cls-1" d="M24.85,77.45H22.7v-9.1L20.09,56.53h2.1l2.08,9.35,2.27-9.35H27.6L24.85,68.32Z"/><path class="cls-1" d="M29.11,56.53h5.66v1.09H31.3v8.12h3.22v1.07H31.3l0,9.58h3.41v1.06h-5.6Z"/><path class="cls-1" d="M43.62,64.06c0,1.52-1,2.42-2.94,2.72.07.26.18.61.32,1s.3.93.46,1.47L42,71c.18.61.37,1.22.56,1.82.43,1.42.88,3,1.37,4.59H41.8l-3-10.67h-.22V77.45H36.42l0-21h3.81a4.82,4.82,0,0,1,1.09.13,3.3,3.3,0,0,1,1.1.44,2.8,2.8,0,0,1,.84.9,2.91,2.91,0,0,1,.33,1.47Zm-5,1.63h1.68a1,1,0,0,0,.7-.25,1.49,1.49,0,0,0,.36-.56,3.1,3.1,0,0,0,.14-.82v-1c0-.3,0-.65,0-1s0-.81,0-1.24V59.47a4.56,4.56,0,0,0-.1-1,1.33,1.33,0,0,0-.35-.69,1,1,0,0,0-.75-.25H38.61Z"/><path class="cls-1" d="M46.79,56.5h2.15v21H46.79Zm3.05-4L48,55.46H47l1.21-2.91Z"/><path class="cls-1" d="M57.15,56.5l2.61,21h-2l-.48-3.87H54l-.56,3.87H52.25l2.33-21Zm-1.73,3.14L54,72.52h3.14L55.61,59.64Z"/></g></g></svg>