<svg xmlns="http://www.w3.org/2000/svg" width="50.488" height="58.787" viewBox="0 0 50.488 58.787">
  <g id="details1" transform="translate(-54.14 -243)">
    <g id="Group_16" data-name="Group 16" transform="translate(54.14 243)">
      <path id="Path_1" data-name="Path 1" d="M467.6,520.829a1.148,1.148,0,1,1,1.12-.9,1.159,1.159,0,0,1-1.12.9Z" transform="translate(-419.11 -486.899)" fill="#fff"/>
      <path id="Path_2" data-name="Path 2" d="M104.488,263.68a3.832,3.832,0,0,0-1.734-1.761,21.285,21.285,0,0,0-3.928-1.847c-.884-.348-1.775-.7-2.635-1.1l.166-.195a1.148,1.148,0,1,0-1.748-1.489l-.477.56c-2.592-1.7-4.532-4.362-4.532-9.689,0-.032,0-.063,0-.094-.083-3.035-4.17-5.066-10.224-5.066-6.116,0-10.225,2.074-10.225,5.161,0,5.114-2.02,7.8-4.618,9.556l-.364-.427a1.148,1.148,0,0,0-1.748,1.489l.082.1c-.886.436-1.795.814-2.679,1.182a23.112,23.112,0,0,0-3.826,1.862,3.832,3.832,0,0,0-1.734,1.761c-.063.144-.193.443-.065,3.275a67.072,67.072,0,0,0,.675,6.848c.752,4.99,2.439,12.146,6.205,17.9,4.383,6.693,10.54,10.087,18.3,10.087,11.507,0,19.538-7.092,23.226-20.51a1.148,1.148,0,0,0-2.214-.609c-3.433,12.49-10.5,18.823-21.012,18.823a18.289,18.289,0,0,1-13.981-5.958c-4.7-5.087-6.886-12.551-7.889-17.917a59.944,59.944,0,0,1-1.061-11.163,3.531,3.531,0,0,1,.82-.619,21.611,21.611,0,0,1,3.44-1.656c1.052-.438,2.194-.914,3.327-1.505l12.214,14.334a5.105,5.105,0,0,0-1.964,3.868,5.1,5.1,0,0,0-3.5,4.609,5.687,5.687,0,0,0,1.028,3.539c1.113,1.688,6.265,6.076,6.849,6.571a1.148,1.148,0,0,0,1.485,0c.582-.493,5.715-4.869,6.835-6.572A5.7,5.7,0,0,0,88,283.483a5.1,5.1,0,0,0-3.5-4.609,5.105,5.105,0,0,0-1.964-3.868l12.126-14.231c1.134.571,2.276,1.021,3.328,1.435a19.8,19.8,0,0,1,3.5,1.624,3.41,3.41,0,0,1,.824.624,53.859,53.859,0,0,1-.182,6.073,1.148,1.148,0,0,0,1.051,1.238c.032,0,.063,0,.095,0a1.148,1.148,0,0,0,1.143-1.055c.164-2.01.205-3.67.211-4.709.011-1.983-.061-2.15-.139-2.327ZM73.2,246.365a15.347,15.347,0,0,1,6.172-1.068,15.347,15.347,0,0,1,6.172,1.068c1.116.519,1.756,1.173,1.756,1.8s-.64,1.278-1.756,1.8a15.348,15.348,0,0,1-6.172,1.068,15.348,15.348,0,0,1-6.172-1.068c-1.116-.519-1.756-1.173-1.756-1.8S72.083,246.883,73.2,246.365Zm8.984,32.362a5.9,5.9,0,0,0-2.788,1.58,5.8,5.8,0,0,0-2.806-1.583,2.814,2.814,0,0,1,5.594,0Zm3.521,4.879a3.333,3.333,0,0,1-.652,2.154,50.087,50.087,0,0,1-5.659,5.446,50.537,50.537,0,0,1-5.673-5.447,3.367,3.367,0,0,1-.652-2.153,2.8,2.8,0,0,1,2.7-2.667,3.671,3.671,0,0,1,2.467,1.49v1.866a1.148,1.148,0,0,0,2.3,0v-1.85A3.838,3.838,0,0,1,83,280.938a2.8,2.8,0,0,1,2.7,2.667Zm-5.348-9.591a5.14,5.14,0,0,0-1.942,0l-12.389-14.54a11.9,11.9,0,0,0,5.139-8.039c1.787,1.188,4.659,1.886,8.206,1.886s6.4-.694,8.192-1.877a11.734,11.734,0,0,0,5.08,8.15Z" transform="translate(-54.14 -243)" fill="#fff"/>
    </g>
  </g>
</svg>
