<svg xmlns="http://www.w3.org/2000/svg" width="51.183" height="45.58" viewBox="0 0 51.183 45.58">
  <g id="details2" transform="translate(-1495 250.971)">
    <g id="Group_39" data-name="Group 39" transform="translate(1500.998 -227.385)">
      <g id="Group_38" data-name="Group 38" transform="translate(0 0)">
        <path id="Path_12" data-name="Path 12" d="M1556-15.028a1,1,0,0,0-1,1,1,1,0,0,0,1,1,1,1,0,0,0,1-1A1,1,0,0,0,1556-15.028Z" transform="translate(-1555 15.028)" fill="#fff"/>
      </g>
    </g>
    <g id="Group_41" data-name="Group 41" transform="translate(1495 -250.971)">
      <g id="Group_40" data-name="Group 40" transform="translate(0 0)">
        <path id="Path_13" data-name="Path 13" d="M1546.183-223.886a4.491,4.491,0,0,0-1.674-3.5,4.5,4.5,0,0,0,1.613-4.248,4.638,4.638,0,0,0-4.624-3.75h-9.523l.3-.889a12.726,12.726,0,0,0-3.608-13.688,4.228,4.228,0,0,0-6.728,1.775,1,1,0,0,0-.015.644c.83,2.641.842,4.417.041,6.13-.831,1.776-2.619,3.641-5.979,6.236a14.846,14.846,0,0,1-2.193,1.372,9.21,9.21,0,0,0-3.147,2.419H1507v-1a1,1,0,0,0-1-1h-10a1,1,0,0,0-1,1v25.992a1,1,0,0,0,1,1h10a1,1,0,0,0,1-1v-3h5.607a15.832,15.832,0,0,0,10.55,4h12.534a4.5,4.5,0,0,0,4.5-4.5,4.473,4.473,0,0,0-.76-2.5h.26a4.5,4.5,0,0,0,4.5-4.5,4.475,4.475,0,0,0-.958-2.77A4.5,4.5,0,0,0,1546.183-223.886ZM1505-207.391h-8v-23.992h8Zm36.688-14h-9.6a1,1,0,0,0-1,1,1,1,0,0,0,1,1h7.6a2.5,2.5,0,0,1,2.5,2.5,2.5,2.5,0,0,1-2.5,2.5h-7.6a1,1,0,0,0-1,1,1,1,0,0,0,1,1h3.6a2.5,2.5,0,0,1,2.5,2.5,2.5,2.5,0,0,1-2.5,2.5h-12.534a13.839,13.839,0,0,1-9.48-3.73,1,1,0,0,0-.682-.269H1507v-17.994h4.135a1,1,0,0,0,.805-.407,7.085,7.085,0,0,1,2.8-2.252,16.75,16.75,0,0,0,2.465-1.548c6.844-5.287,8.411-8.526,6.734-14.188a2.224,2.224,0,0,1,3.49-.6,10.676,10.676,0,0,1,2.946,11.479l-.507,1.522h-1.279a1,1,0,0,0-1,1,1,1,0,0,0,1,1H1541.5a2.625,2.625,0,0,1,2.651,2.072,2.5,2.5,0,0,1-2.464,2.926h-9.6a1,1,0,0,0-1,1,1,1,0,0,0,1,1h9.6a2.5,2.5,0,0,1,2.5,2.5A2.5,2.5,0,0,1,1541.685-221.387Z" transform="translate(-1495 250.971)" fill="#fff"/>
      </g>
    </g>
    <g id="Group_43" data-name="Group 43" transform="translate(1500.998 -223.386)">
      <g id="Group_42" data-name="Group 42" transform="translate(0 0)">
        <path id="Path_14" data-name="Path 14" d="M1556,24.972a1,1,0,0,0-1,1v10a1,1,0,0,0,2,0v-10A1,1,0,0,0,1556,24.972Z" transform="translate(-1555 -24.972)" fill="#fff"/>
      </g>
    </g>
  </g>
</svg>
