<svg xmlns="http://www.w3.org/2000/svg" width="48.482" height="53.962" viewBox="0 0 48.482 53.962">
  <g id="details3" transform="translate(-1773 -422)">
    <g id="Group_32" data-name="Group 32" transform="translate(1807.78 463.736)">
      <g id="Group_31" data-name="Group 31">
        <path id="Path_9" data-name="Path 9" d="M2104.054,818a1.054,1.054,0,1,0,1.054,1.054A1.054,1.054,0,0,0,2104.054,818Z" transform="translate(-2103 -818)" fill="#fff"/>
      </g>
    </g>
    <g id="Group_34" data-name="Group 34" transform="translate(1773 422)">
      <g id="Group_33" data-name="Group 33">
        <path id="Path_10" data-name="Path 10" d="M1811.429,460.328l-5.01-1.669-1.8-3.6a11.544,11.544,0,0,0,3.124-6.107l.224-1.344h1.918a3.165,3.165,0,0,0,3.162-3.162v-6.64a15.809,15.809,0,0,0-31.619,0v6.64a3.167,3.167,0,0,0,2.108,2.981v1.235a3.165,3.165,0,0,0,3.162,3.162h.926a11.432,11.432,0,0,0,1.768,2.738c.149.172.3.338.464.5l-1.8,3.595-5.01,1.67c-5.825,1.942-10.052,8.074-10.052,14.58a1.054,1.054,0,0,0,1.054,1.054h46.374a1.054,1.054,0,0,0,1.054-1.054C1821.482,468.4,1817.254,462.27,1811.429,460.328Zm-.487-15.879a1.055,1.055,0,0,1-1.054,1.054h-1.609c.268-2.075.446-4.284.518-6.459,0-.061,0-.121.006-.181h2.138Zm-26.349,1.054a1.055,1.055,0,0,1-1.054-1.054v-5.586h2.139c0,.11.007.22.011.332,0,0,0,.007,0,.011h0c.074,2.115.25,4.267.512,6.3h-1.609Zm2.108,4.216a1.055,1.055,0,0,1-1.054-1.054v-1.054h.864l.224,1.345c.043.256.1.51.156.763Zm-1.052-12.964h-2.07a13.7,13.7,0,0,1,27.322,0h-2.069a10.675,10.675,0,0,0-10.648-10.539H1796.3A10.675,10.675,0,0,0,1785.649,436.755Zm10.648-8.432h1.887a8.57,8.57,0,0,1,8.542,8.58c0,.332,0,.62-.008.883,0,0,0,.007,0,.01l-1.318-.188a16.935,16.935,0,0,1-9.521-4.761,1.055,1.055,0,0,0-.745-.309,9.535,9.535,0,0,0-7.331,3.468A8.567,8.567,0,0,1,1796.3,428.324Zm-7.221,21.4a60.244,60.244,0,0,1-1.265-10.229l1.418-1.891a7.419,7.419,0,0,1,5.486-2.939A19.064,19.064,0,0,0,1805.1,439.7l1.552.222c-.1,2.2-.316,4.41-.619,6.441v0c-.1.653-.173,1.073-.367,2.247a8.952,8.952,0,0,1-6.354,7.2,8.292,8.292,0,0,1-9.309-3.982h2.149a3.167,3.167,0,0,0,2.981,2.108h2.108a3.162,3.162,0,0,0,0-6.324h-2.108a3.163,3.163,0,0,0-2.982,2.108Zm5.967,8.222a10.569,10.569,0,0,0,3.92.088L1797.1,460Zm.609,3.59-3.343,3.535a40.167,40.167,0,0,1-2.36-5.472l1.255-2.511Zm7.444-4.8,1.434,2.868a40.137,40.137,0,0,1-2.36,5.473l-3.578-3.578Zm-9.018-5.954a1.054,1.054,0,0,1,1.054-1.054h2.108a1.054,1.054,0,0,1,0,2.108h-2.108A1.055,1.055,0,0,1,1794.079,450.773Zm-18.929,23.081c.418-5.221,3.892-9.967,8.569-11.526l4.437-1.478a42.236,42.236,0,0,0,3,6.507l.006.011h0a42.235,42.235,0,0,0,2.885,4.405l1.3,2.081Zm22.091-.939-1.429-2.295c-.016-.026-.033-.051-.051-.075a40.2,40.2,0,0,1-2.375-3.548l3.759-3.975,3.961,3.961a40.113,40.113,0,0,1-2.383,3.562C1798.67,470.614,1798.743,470.505,1797.241,472.915Zm1.9.939,1.3-2.081a42.242,42.242,0,0,0,2.905-4.44l.016-.028,0,0a42.208,42.208,0,0,0,2.968-6.452l4.436,1.478c4.677,1.559,8.151,6.305,8.569,11.526Z" transform="translate(-1773 -422)" fill="#fff"/>
      </g>
    </g>
    <g id="Group_36" data-name="Group 36" transform="translate(1811.484 465.748)">
      <g id="Group_35" data-name="Group 35">
        <path id="Path_11" data-name="Path 11" d="M2142.819,840.929a10.539,10.539,0,0,0-2.983-3.622,1.054,1.054,0,1,0-1.285,1.671,8.421,8.421,0,0,1,2.383,2.893,1.054,1.054,0,0,0,1.886-.942Z" transform="translate(-2138.139 -837.089)" fill="#fff"/>
      </g>
    </g>
  </g>
</svg>
