<svg xmlns="http://www.w3.org/2000/svg" width="65.291" height="41.301" viewBox="0 0 65.291 41.301">
  <g id="details4" transform="translate(-699.456 -263)">
    <g id="Group_19" data-name="Group 19" transform="translate(699.456 263)">
      <g id="Group_18" data-name="Group 18" transform="translate(0 0)">
        <path id="Path_3" data-name="Path 3" d="M760.176,280.509l-1.691-6.763a1.022,1.022,0,0,0,.809-1v-1.09A4.3,4.3,0,0,0,755,267.362h-7.7v-2.249A2.115,2.115,0,0,0,745.187,263H705.931a2.115,2.115,0,0,0-2.113,2.113v18.538a1.022,1.022,0,1,0,2.045,0V265.113a.068.068,0,0,1,.068-.068h39.256a.068.068,0,0,1,.068.068v18.538a1.022,1.022,0,1,0,2.045,0v-1.159h12.065a3.345,3.345,0,0,1,3.177,2.317h-3.179a1.022,1.022,0,0,0-1.022,1.022v2.181a3.207,3.207,0,0,0,3.2,3.2H762.7v4.5h-2.673a6.473,6.473,0,0,0-12.238,0H747.3v-7.7a1.022,1.022,0,0,0-2.045,0v7.7h-21.21a6.473,6.473,0,0,0-12.237,0h-5.876a.068.068,0,0,1-.068-.068V293.4h4.43a1.022,1.022,0,0,0,0-2.045h-9.814a1.022,1.022,0,0,0,0,2.045h3.34v2.249a2.115,2.115,0,0,0,2.113,2.113h5.522c0,.023,0,.045,0,.068a6.475,6.475,0,1,0,12.949,0c0-.023,0-.045,0-.068h23.039c0,.023,0,.045,0,.068a6.475,6.475,0,1,0,12.949,0c0-.023,0-.045,0-.068h3.341a1.022,1.022,0,0,0,1.022-1.022v-10.9A5.392,5.392,0,0,0,760.176,280.509Zm-12.877-11.1H755a2.252,2.252,0,0,1,2.249,2.249v.068H747.3Zm0,11.041v-6.679h9.084l1.67,6.679Zm-29.374,21.809a4.43,4.43,0,1,1,4.43-4.43A4.435,4.435,0,0,1,717.926,302.256Zm35.985,0a4.43,4.43,0,1,1,4.43-4.43A4.435,4.435,0,0,1,753.911,302.256Zm8.792-13.085h-1.159a1.16,1.16,0,0,1-1.159-1.159v-1.159H762.7v2.317Z" transform="translate(-699.456 -263)" fill="#fff"/>
      </g>
    </g>
    <g id="Group_21" data-name="Group 21" transform="translate(715.813 295.714)">
      <g id="Group_20" data-name="Group 20" transform="translate(0 0)">
        <path id="Path_4" data-name="Path 4" d="M829.836,519.535a2.113,2.113,0,1,0,2.113,2.113A2.115,2.115,0,0,0,829.836,519.535Z" transform="translate(-827.723 -519.535)" fill="#fff"/>
      </g>
    </g>
    <g id="Group_23" data-name="Group 23" transform="translate(751.798 295.714)">
      <g id="Group_22" data-name="Group 22" transform="translate(0 0)">
        <path id="Path_5" data-name="Path 5" d="M1112.024,519.535a2.113,2.113,0,1,0,2.113,2.113A2.115,2.115,0,0,0,1112.024,519.535Z" transform="translate(-1109.911 -519.535)" fill="#fff"/>
      </g>
    </g>
    <g id="Group_25" data-name="Group 25" transform="translate(725.627 291.352)">
      <g id="Group_24" data-name="Group 24" transform="translate(0)">
        <path id="Path_6" data-name="Path 6" d="M920.972,485.331H905.705a1.022,1.022,0,1,0,0,2.045h15.266a1.022,1.022,0,0,0,0-2.045Z" transform="translate(-904.683 -485.331)" fill="#fff"/>
      </g>
    </g>
    <g id="Group_27" data-name="Group 27" transform="translate(701.637 286.99)">
      <g id="Group_26" data-name="Group 26" transform="translate(0)">
        <path id="Path_7" data-name="Path 7" d="M730.666,451.126H717.58a1.022,1.022,0,0,0,0,2.045h13.086a1.022,1.022,0,0,0,0-2.045Z" transform="translate(-716.558 -451.126)" fill="#fff"/>
      </g>
    </g>
    <g id="Group_29" data-name="Group 29" transform="translate(717.994 272.814)">
      <g id="Group_28" data-name="Group 28" transform="translate(0 0)">
        <path id="Path_8" data-name="Path 8" d="M861.837,340.26a1.022,1.022,0,0,0-1.446,0l-9.091,9.091-4.729-4.729a1.022,1.022,0,0,0-1.446,1.446l5.452,5.452a1.022,1.022,0,0,0,1.446,0l9.814-9.814A1.023,1.023,0,0,0,861.837,340.26Z" transform="translate(-844.826 -339.961)" fill="#fff"/>
      </g>
    </g>
  </g>
</svg>
